<?xml version="1.0" standalone="no"?>
<!DOCTYPE svg PUBLIC "-//W3C//DTD SVG 20010904//EN"
 "http://www.w3.org/TR/2001/REC-SVG-20010904/DTD/svg10.dtd">
<svg version="1.0" xmlns="http://www.w3.org/2000/svg"
 width="700.000000pt" height="700.000000pt" viewBox="0 0 700.000000 700.000000"
 preserveAspectRatio="xMidYMid meet">
<metadata>
Created by potrace 1.11, written by Peter Selinger 2001-2013
</metadata>
<g transform="translate(0.000000,700.000000) scale(0.100000,-0.100000)"
fill="#000000" stroke="none">
<path d="M0 3500 l0 -3500 3500 0 3500 0 0 3500 0 3500 -3500 0 -3500 0 0
-3500z m3762 2134 c208 -28 398 -85 593 -178 122 -58 140 -74 131 -111 -13
-53 -41 -51 -169 10 -144 69 -315 126 -468 157 -99 20 -144 23 -344 23 -182 0
-251 -4 -330 -19 -799 -149 -1411 -769 -1580 -1601 -109 -538 3 -1121 305
-1578 39 -60 77 -110 85 -113 7 -3 792 384 1745 861 1235 617 1737 864 1751
860 28 -9 36 -36 53 -187 123 -1055 -515 -2052 -1492 -2332 -207 -60 -291 -71
-542 -71 -251 0 -335 11 -542 71 -232 66 -455 178 -651 325 -99 74 -269 232
-335 312 l-32 37 -220 -110 c-121 -60 -222 -110 -225 -110 -5 0 -35 55 -35 64
0 3 96 54 214 113 l214 108 -70 105 c-38 58 -100 166 -137 241 -537 1082 -101
2425 954 2939 185 90 384 153 565 179 41 6 86 13 100 15 72 10 361 4 462 -10z"/>
<path d="M3727 2993 l-1688 -844 52 -60 c29 -33 90 -94 136 -135 281 -250 576
-396 948 -471 129 -26 521 -26 650 0 364 73 669 224 941 465 462 411 722 1065
675 1697 -6 85 -15 164 -19 174 -6 17 -195 -75 -1695 -826z"/>
</g>
</svg>
